<mxfile host="app.diagrams.net" modified="2023-11-30T09:17:17.696Z" agent="Mozilla/5.0 (Windows NT 10.0; Win64; x64) AppleWebKit/537.36 (KHTML, like Gecko) Chrome/119.0.0.0 Safari/537.36" version="22.1.5" etag="yvI9vDx_sIavPMFc296V" type="github">
  <diagram name="Page-1" id="e6dnSYpFafI4ISeKtETX">
    <mxGraphModel>
      <root>
        <mxCell id="0" />
        <mxCell id="1" parent="0" />
      </root>
    </mxGraphModel>
  </diagram>
</mxfile>
